<svg width="22" height="22" viewBox="0 0 22 22" fill="none" xmlns="http://www.w3.org/2000/svg">
<g clip-path="url(#clip0_514_1538)">
<path d="M12.753 16.5051C13.9397 16.9115 14.9876 17.1704 16.4932 17.633C15.9148 24.9415 9.00388 22.0391 12.753 16.5051ZM18.9234 9.7914C18.8455 7.59699 18.459 4.7184 15.3802 5.16945C13.937 5.5461 12.8706 7.13113 12.3691 9.8658C12.0936 11.3694 12.2538 13.4799 12.5787 14.745C12.8754 15.6366 12.7745 15.5818 13.0934 15.7511C14.3275 16.0291 15.5493 16.3369 16.7935 16.6507C18.0574 15.7581 19.0955 11.0195 18.9234 9.7914ZM9.42215 9.62299C9.74682 8.35768 9.907 6.24717 9.63166 4.74375C9.13051 2.00896 8.06401 0.423678 6.62051 0.0472788C3.54176 -0.403769 3.15524 2.47477 3.07731 4.66932C2.90526 5.89715 3.94346 10.6361 5.20753 11.5285C6.45163 11.2147 7.67323 10.9072 8.90776 10.6289C9.22624 10.4598 9.12535 10.5145 9.42215 9.62299ZM5.50736 12.5111C6.08556 19.8195 12.9965 16.9171 9.24745 11.3832C8.06072 11.7897 7.01292 12.0485 5.50736 12.5111Z" fill="#F25700"/>
</g>
<defs>
<clipPath id="clip0_514_1538">
<rect width="22" height="22" fill="white"/>
</clipPath>
</defs>
</svg>
