<svg width="32" height="33" viewBox="0 0 32 33" fill="none" xmlns="http://www.w3.org/2000/svg">
<path fill-rule="evenodd" clip-rule="evenodd" d="M16.0067 2C17.6245 2 19.2361 2.39907 20.668 3.15403C25.5432 5.72638 27.4181 11.7855 24.8475 16.6624C23.0942 19.9879 19.642 22 15.9953 22C15.2829 22 14.5634 21.9234 13.8474 21.7648C13.4441 21.6749 13.1896 21.275 13.2785 20.8715C13.3675 20.468 13.7664 20.2152 14.1724 20.3024C17.8966 21.1305 21.7415 19.3431 23.523 15.9638C25.7088 11.8181 24.1148 6.66546 19.9696 4.47897C18.7526 3.83676 17.3823 3.4976 16.0059 3.4976H15.9962C11.3103 3.4976 7.4971 7.31119 7.4971 11.9987C7.49534 13.3641 7.82822 14.7234 8.45964 15.9312L8.65162 16.3065C8.88675 16.747 8.93871 17.294 8.78636 17.7891C8.57588 18.3441 8.40064 18.8841 8.25621 19.4215C8.81806 19.2523 9.50408 19.003 9.99988 18.8224L10.2033 18.7493C10.5882 18.6057 11.0205 18.8092 11.1615 19.1986C11.3024 19.5871 11.1007 20.017 10.7123 20.1571L10.5115 20.2302L10.4774 20.2426L10.4773 20.2426C9.73908 20.5101 8.74506 20.8703 8.0704 21.0213C8.01227 21.0336 7.94975 21.0415 7.89251 21.0398C7.43281 21.0398 7.15277 20.8539 6.99865 20.6971C6.76176 20.4566 6.64904 20.1192 6.66225 19.6946C6.66401 19.6461 6.67017 19.5959 6.68162 19.5475C6.85951 18.7899 7.09112 18.034 7.37117 17.3019C7.39142 17.2306 7.37909 17.1011 7.32185 16.9927L7.12899 16.6183C6.39013 15.2035 5.99824 13.6029 6.00001 11.9978C6.00001 6.48487 10.4842 2 15.9953 2H16.0067ZM10.4035 11.9991C10.4035 11.3428 10.9363 10.8098 11.5923 10.8098C12.2484 10.8098 12.7812 11.3428 12.7812 11.9991C12.7812 12.6545 12.2484 13.1875 11.5923 13.1875C10.9363 13.1875 10.4035 12.6545 10.4035 11.9991ZM17.1845 11.9988C17.1845 11.3433 16.6517 10.8095 15.9956 10.8095C15.3396 10.8095 14.8068 11.3433 14.8068 11.9988C14.8068 12.6542 15.3396 13.188 15.9956 13.188C16.6517 13.188 17.1845 12.6542 17.1845 11.9988ZM20.3989 10.8095C21.0549 10.8095 21.5877 11.3433 21.5877 11.9988C21.5877 12.6542 21.0549 13.188 20.3989 13.188C19.7428 13.188 19.21 12.6542 19.21 11.9988C19.21 11.3433 19.7428 10.8095 20.3989 10.8095Z" fill="#080C2F" fill-opacity="0.65"/>
</svg>
