<svg width="32" height="35" viewBox="0 0 32 35" fill="none" xmlns="http://www.w3.org/2000/svg">
<path fill-rule="evenodd" clip-rule="evenodd" d="M12.0584 7.35387C12.0584 5.19392 13.8264 3.43696 16 3.43696C18.1736 3.43696 19.9416 5.19392 19.9416 7.35387C19.9416 9.51281 18.1736 11.2698 16 11.2698C13.8264 11.2698 12.0584 9.51281 12.0584 7.35387ZM10.6123 7.35387C10.6123 10.3048 13.0294 12.7067 16 12.7067C18.9706 12.7067 21.3867 10.3048 21.3867 7.35387C21.3867 4.40194 18.9706 2 16 2C13.0294 2 10.6123 4.40194 10.6123 7.35387ZM14.9776 21.985C15.3127 21.995 15.6538 22 16 22C19.4345 22 24 21.619 24 18.3301C24 14.6392 17.9784 14.6392 16 14.6392C12.5655 14.6392 8 15.0202 8 18.3101C8 19.2951 8.46088 20.624 10.6566 21.363C11.036 21.493 11.4445 21.288 11.5733 20.913C11.7011 20.538 11.4989 20.131 11.1205 20.004C9.61811 19.4981 9.44503 18.7951 9.44503 18.3101C9.44503 16.8271 11.6508 16.0751 16 16.0751C20.3492 16.0751 22.555 16.8341 22.555 18.3301C22.555 19.8121 20.3492 20.563 16 20.563C15.6679 20.563 15.3409 20.559 15.0189 20.55C14.6325 20.553 14.2883 20.851 14.2772 21.247C14.2652 21.644 14.5791 21.975 14.9776 21.985Z" fill="#080C2F" fill-opacity="0.65"/>
</svg>
